<mxfile host="app.diagrams.net" agent="Mozilla/5.0 (Windows NT 10.0; Win64; x64) AppleWebKit/537.36 (KHTML, like Gecko) Chrome/130.0.0.0 YaBrowser/24.12.0.0 Safari/537.36" version="25.0.3">
  <diagram name="Страница — 1" id="RRlvjV9NWWJfhZUZJUfN">
    <mxGraphModel dx="1290" dy="1736" grid="1" gridSize="10" guides="1" tooltips="1" connect="1" arrows="1" fold="1" page="1" pageScale="1" pageWidth="827" pageHeight="1169" math="0" shadow="0">
      <root>
        <mxCell id="0" />
        <mxCell id="1" parent="0" />
        <mxCell id="2oqVeCjJIa9QC_lpXmB_-1" style="edgeStyle=orthogonalEdgeStyle;rounded=0;orthogonalLoop=1;jettySize=auto;html=1;" parent="1" source="2oqVeCjJIa9QC_lpXmB_-2" target="2oqVeCjJIa9QC_lpXmB_-4" edge="1">
          <mxGeometry relative="1" as="geometry" />
        </mxCell>
        <mxCell id="2oqVeCjJIa9QC_lpXmB_-2" value="Начало" style="ellipse;whiteSpace=wrap;html=1;" parent="1" vertex="1">
          <mxGeometry x="170" y="-50" width="150" height="60" as="geometry" />
        </mxCell>
        <mxCell id="2oqVeCjJIa9QC_lpXmB_-3" style="edgeStyle=orthogonalEdgeStyle;rounded=0;orthogonalLoop=1;jettySize=auto;html=1;" parent="1" source="2oqVeCjJIa9QC_lpXmB_-4" target="2oqVeCjJIa9QC_lpXmB_-6" edge="1">
          <mxGeometry relative="1" as="geometry" />
        </mxCell>
        <mxCell id="2oqVeCjJIa9QC_lpXmB_-4" value="Ввод size и&amp;nbsp;&lt;div&gt;матрицы matrix&lt;/div&gt;" style="shape=parallelogram;perimeter=parallelogramPerimeter;whiteSpace=wrap;html=1;fixedSize=1;" parent="1" vertex="1">
          <mxGeometry x="165" y="30" width="160" height="50" as="geometry" />
        </mxCell>
        <mxCell id="2oqVeCjJIa9QC_lpXmB_-5" style="edgeStyle=orthogonalEdgeStyle;rounded=0;orthogonalLoop=1;jettySize=auto;html=1;" parent="1" source="2oqVeCjJIa9QC_lpXmB_-6" target="2oqVeCjJIa9QC_lpXmB_-9" edge="1">
          <mxGeometry relative="1" as="geometry" />
        </mxCell>
        <mxCell id="2oqVeCjJIa9QC_lpXmB_-6" value="sum := 0;&lt;div&gt;i := 1;&lt;/div&gt;" style="rounded=0;whiteSpace=wrap;html=1;" parent="1" vertex="1">
          <mxGeometry x="175" y="100" width="140" height="60" as="geometry" />
        </mxCell>
        <mxCell id="2oqVeCjJIa9QC_lpXmB_-7" value="Конец" style="ellipse;whiteSpace=wrap;html=1;" parent="1" vertex="1">
          <mxGeometry x="170" y="910" width="150" height="60" as="geometry" />
        </mxCell>
        <mxCell id="2oqVeCjJIa9QC_lpXmB_-59" style="edgeStyle=orthogonalEdgeStyle;rounded=0;orthogonalLoop=1;jettySize=auto;html=1;" parent="1" source="2oqVeCjJIa9QC_lpXmB_-9" target="2oqVeCjJIa9QC_lpXmB_-12" edge="1">
          <mxGeometry relative="1" as="geometry" />
        </mxCell>
        <mxCell id="2oqVeCjJIa9QC_lpXmB_-9" value="Цикл 1&lt;div&gt;i &amp;gt; size&lt;/div&gt;" style="shape=loopLimit;whiteSpace=wrap;html=1;" parent="1" vertex="1">
          <mxGeometry x="175" y="180" width="140" height="60" as="geometry" />
        </mxCell>
        <mxCell id="2oqVeCjJIa9QC_lpXmB_-12" value="j := i + 1;" style="rounded=0;whiteSpace=wrap;html=1;" parent="1" vertex="1">
          <mxGeometry x="175" y="260" width="140" height="60" as="geometry" />
        </mxCell>
        <mxCell id="2oqVeCjJIa9QC_lpXmB_-60" style="edgeStyle=orthogonalEdgeStyle;rounded=0;orthogonalLoop=1;jettySize=auto;html=1;" parent="1" source="2oqVeCjJIa9QC_lpXmB_-14" target="2oqVeCjJIa9QC_lpXmB_-26" edge="1">
          <mxGeometry relative="1" as="geometry" />
        </mxCell>
        <mxCell id="2oqVeCjJIa9QC_lpXmB_-14" value="Цикл 1.1&lt;div&gt;j &amp;gt; size&lt;/div&gt;" style="shape=loopLimit;whiteSpace=wrap;html=1;" parent="1" vertex="1">
          <mxGeometry x="175" y="340" width="140" height="60" as="geometry" />
        </mxCell>
        <mxCell id="2oqVeCjJIa9QC_lpXmB_-15" style="edgeStyle=orthogonalEdgeStyle;rounded=0;orthogonalLoop=1;jettySize=auto;html=1;" parent="1" source="2oqVeCjJIa9QC_lpXmB_-12" target="2oqVeCjJIa9QC_lpXmB_-14" edge="1">
          <mxGeometry relative="1" as="geometry" />
        </mxCell>
        <mxCell id="2oqVeCjJIa9QC_lpXmB_-65" style="edgeStyle=orthogonalEdgeStyle;rounded=0;orthogonalLoop=1;jettySize=auto;html=1;" parent="1" source="2oqVeCjJIa9QC_lpXmB_-24" target="2oqVeCjJIa9QC_lpXmB_-64" edge="1">
          <mxGeometry relative="1" as="geometry" />
        </mxCell>
        <mxCell id="2oqVeCjJIa9QC_lpXmB_-24" value="Цикл 1.1" style="shape=loopLimit;whiteSpace=wrap;html=1;direction=west;" parent="1" vertex="1">
          <mxGeometry x="175" y="590" width="140" height="60" as="geometry" />
        </mxCell>
        <mxCell id="2oqVeCjJIa9QC_lpXmB_-62" style="edgeStyle=orthogonalEdgeStyle;rounded=0;orthogonalLoop=1;jettySize=auto;html=1;" parent="1" source="2oqVeCjJIa9QC_lpXmB_-26" target="2oqVeCjJIa9QC_lpXmB_-61" edge="1">
          <mxGeometry relative="1" as="geometry" />
        </mxCell>
        <mxCell id="2oqVeCjJIa9QC_lpXmB_-26" value="sum += matrix[ i ; j ]" style="rounded=0;whiteSpace=wrap;html=1;" parent="1" vertex="1">
          <mxGeometry x="175" y="430" width="140" height="60" as="geometry" />
        </mxCell>
        <mxCell id="2oqVeCjJIa9QC_lpXmB_-29" style="edgeStyle=orthogonalEdgeStyle;rounded=0;orthogonalLoop=1;jettySize=auto;html=1;" parent="1" source="2oqVeCjJIa9QC_lpXmB_-30" target="2oqVeCjJIa9QC_lpXmB_-32" edge="1">
          <mxGeometry relative="1" as="geometry" />
        </mxCell>
        <mxCell id="2oqVeCjJIa9QC_lpXmB_-30" value="Цикл 1" style="shape=loopLimit;whiteSpace=wrap;html=1;direction=west;" parent="1" vertex="1">
          <mxGeometry x="175" y="760" width="140" height="60" as="geometry" />
        </mxCell>
        <mxCell id="2oqVeCjJIa9QC_lpXmB_-31" style="edgeStyle=orthogonalEdgeStyle;rounded=0;orthogonalLoop=1;jettySize=auto;html=1;" parent="1" source="2oqVeCjJIa9QC_lpXmB_-32" target="2oqVeCjJIa9QC_lpXmB_-7" edge="1">
          <mxGeometry relative="1" as="geometry" />
        </mxCell>
        <mxCell id="2oqVeCjJIa9QC_lpXmB_-32" value="Вывод sum" style="shape=parallelogram;perimeter=parallelogramPerimeter;whiteSpace=wrap;html=1;fixedSize=1;" parent="1" vertex="1">
          <mxGeometry x="165" y="840" width="160" height="50" as="geometry" />
        </mxCell>
        <mxCell id="2oqVeCjJIa9QC_lpXmB_-33" value="" style="endArrow=none;dashed=1;html=1;rounded=0;" parent="1" target="2oqVeCjJIa9QC_lpXmB_-34" edge="1">
          <mxGeometry width="50" height="50" relative="1" as="geometry">
            <mxPoint x="315" y="55" as="sourcePoint" />
            <mxPoint x="390" y="60" as="targetPoint" />
          </mxGeometry>
        </mxCell>
        <mxCell id="2oqVeCjJIa9QC_lpXmB_-34" value="" style="shape=partialRectangle;whiteSpace=wrap;html=1;bottom=1;right=1;left=1;top=0;fillColor=none;routingCenterX=-0.5;rotation=90;" parent="1" vertex="1">
          <mxGeometry x="348.75" y="50" width="52.5" height="10" as="geometry" />
        </mxCell>
        <mxCell id="2oqVeCjJIa9QC_lpXmB_-35" value="size - количество строк и столбцов матрицы&lt;br&gt;matrix - сама матрица" style="text;html=1;align=left;verticalAlign=middle;whiteSpace=wrap;rounded=0;" parent="1" vertex="1">
          <mxGeometry x="380" y="40" width="230" height="30" as="geometry" />
        </mxCell>
        <mxCell id="2oqVeCjJIa9QC_lpXmB_-36" value="" style="endArrow=none;dashed=1;html=1;rounded=0;" parent="1" target="2oqVeCjJIa9QC_lpXmB_-37" edge="1">
          <mxGeometry width="50" height="50" relative="1" as="geometry">
            <mxPoint x="315" y="130" as="sourcePoint" />
            <mxPoint x="390" y="135" as="targetPoint" />
          </mxGeometry>
        </mxCell>
        <mxCell id="2oqVeCjJIa9QC_lpXmB_-37" value="" style="shape=partialRectangle;whiteSpace=wrap;html=1;bottom=1;right=1;left=1;top=0;fillColor=none;routingCenterX=-0.5;rotation=90;" parent="1" vertex="1">
          <mxGeometry x="362.18" y="125" width="25.63" height="10" as="geometry" />
        </mxCell>
        <mxCell id="2oqVeCjJIa9QC_lpXmB_-38" value="sum - переменная для записи суммы" style="text;html=1;align=left;verticalAlign=middle;whiteSpace=wrap;rounded=0;" parent="1" vertex="1">
          <mxGeometry x="380" y="115" width="230" height="30" as="geometry" />
        </mxCell>
        <mxCell id="2oqVeCjJIa9QC_lpXmB_-39" value="" style="endArrow=none;dashed=1;html=1;rounded=0;" parent="1" target="2oqVeCjJIa9QC_lpXmB_-40" edge="1">
          <mxGeometry width="50" height="50" relative="1" as="geometry">
            <mxPoint x="315" y="210" as="sourcePoint" />
            <mxPoint x="390" y="215" as="targetPoint" />
          </mxGeometry>
        </mxCell>
        <mxCell id="2oqVeCjJIa9QC_lpXmB_-40" value="" style="shape=partialRectangle;whiteSpace=wrap;html=1;bottom=1;right=1;left=1;top=0;fillColor=none;routingCenterX=-0.5;rotation=90;" parent="1" vertex="1">
          <mxGeometry x="362.18" y="205" width="25.63" height="10" as="geometry" />
        </mxCell>
        <mxCell id="2oqVeCjJIa9QC_lpXmB_-41" value="Перебор значений от 1 до size" style="text;html=1;align=left;verticalAlign=middle;whiteSpace=wrap;rounded=0;" parent="1" vertex="1">
          <mxGeometry x="380" y="195" width="230" height="30" as="geometry" />
        </mxCell>
        <mxCell id="2oqVeCjJIa9QC_lpXmB_-42" value="" style="endArrow=none;dashed=1;html=1;rounded=0;" parent="1" source="2oqVeCjJIa9QC_lpXmB_-14" target="2oqVeCjJIa9QC_lpXmB_-43" edge="1">
          <mxGeometry width="50" height="50" relative="1" as="geometry">
            <mxPoint x="310" y="370" as="sourcePoint" />
            <mxPoint x="385" y="375" as="targetPoint" />
          </mxGeometry>
        </mxCell>
        <mxCell id="2oqVeCjJIa9QC_lpXmB_-43" value="" style="shape=partialRectangle;whiteSpace=wrap;html=1;bottom=1;right=1;left=1;top=0;fillColor=none;routingCenterX=-0.5;rotation=90;" parent="1" vertex="1">
          <mxGeometry x="357.18" y="365" width="25.63" height="10" as="geometry" />
        </mxCell>
        <mxCell id="2oqVeCjJIa9QC_lpXmB_-44" value="Перебор значений от i + 1(чтобы не включать главную диагональ) до size" style="text;html=1;align=left;verticalAlign=middle;whiteSpace=wrap;rounded=0;" parent="1" vertex="1">
          <mxGeometry x="375" y="355" width="230" height="30" as="geometry" />
        </mxCell>
        <mxCell id="2oqVeCjJIa9QC_lpXmB_-54" value="" style="endArrow=none;dashed=1;html=1;rounded=0;" parent="1" target="2oqVeCjJIa9QC_lpXmB_-55" edge="1">
          <mxGeometry width="50" height="50" relative="1" as="geometry">
            <mxPoint x="315" y="865" as="sourcePoint" />
            <mxPoint x="385" y="870" as="targetPoint" />
          </mxGeometry>
        </mxCell>
        <mxCell id="2oqVeCjJIa9QC_lpXmB_-55" value="" style="shape=partialRectangle;whiteSpace=wrap;html=1;bottom=1;right=1;left=1;top=0;fillColor=none;routingCenterX=-0.5;rotation=90;" parent="1" vertex="1">
          <mxGeometry x="357.18" y="860" width="25.63" height="10" as="geometry" />
        </mxCell>
        <mxCell id="2oqVeCjJIa9QC_lpXmB_-56" value="Выводим результат" style="text;html=1;align=left;verticalAlign=middle;whiteSpace=wrap;rounded=0;" parent="1" vertex="1">
          <mxGeometry x="375" y="850" width="230" height="30" as="geometry" />
        </mxCell>
        <mxCell id="2oqVeCjJIa9QC_lpXmB_-63" style="edgeStyle=orthogonalEdgeStyle;rounded=0;orthogonalLoop=1;jettySize=auto;html=1;" parent="1" source="2oqVeCjJIa9QC_lpXmB_-61" target="2oqVeCjJIa9QC_lpXmB_-24" edge="1">
          <mxGeometry relative="1" as="geometry" />
        </mxCell>
        <mxCell id="2oqVeCjJIa9QC_lpXmB_-61" value="j += 1" style="rounded=0;whiteSpace=wrap;html=1;" parent="1" vertex="1">
          <mxGeometry x="175" y="510" width="140" height="60" as="geometry" />
        </mxCell>
        <mxCell id="2oqVeCjJIa9QC_lpXmB_-67" style="edgeStyle=orthogonalEdgeStyle;rounded=0;orthogonalLoop=1;jettySize=auto;html=1;" parent="1" source="2oqVeCjJIa9QC_lpXmB_-64" target="2oqVeCjJIa9QC_lpXmB_-30" edge="1">
          <mxGeometry relative="1" as="geometry" />
        </mxCell>
        <mxCell id="2oqVeCjJIa9QC_lpXmB_-64" value="i += 1" style="rounded=0;whiteSpace=wrap;html=1;" parent="1" vertex="1">
          <mxGeometry x="175" y="680" width="140" height="60" as="geometry" />
        </mxCell>
        <mxCell id="2oqVeCjJIa9QC_lpXmB_-70" value="" style="endArrow=none;dashed=1;html=1;rounded=0;" parent="1" target="2oqVeCjJIa9QC_lpXmB_-71" edge="1">
          <mxGeometry width="50" height="50" relative="1" as="geometry">
            <mxPoint x="315" y="460" as="sourcePoint" />
            <mxPoint x="385" y="465" as="targetPoint" />
          </mxGeometry>
        </mxCell>
        <mxCell id="2oqVeCjJIa9QC_lpXmB_-71" value="" style="shape=partialRectangle;whiteSpace=wrap;html=1;bottom=1;right=1;left=1;top=0;fillColor=none;routingCenterX=-0.5;rotation=90;" parent="1" vertex="1">
          <mxGeometry x="357.18" y="455" width="25.63" height="10" as="geometry" />
        </mxCell>
        <mxCell id="2oqVeCjJIa9QC_lpXmB_-72" value="Прибавляем элемент матрицы к сумме" style="text;html=1;align=left;verticalAlign=middle;whiteSpace=wrap;rounded=0;" parent="1" vertex="1">
          <mxGeometry x="375" y="445" width="230" height="30" as="geometry" />
        </mxCell>
        <mxCell id="cVP56iFk9pxdqi1Nm72g-1" value="ЗАДАЧА №65&lt;div&gt;Подсчитайте сумму элементов квадратной матрицы, расположенных выше главной диагонали.&amp;nbsp;&lt;br&gt;&lt;/div&gt;" style="text;html=1;align=center;verticalAlign=middle;whiteSpace=wrap;rounded=0;" parent="1" vertex="1">
          <mxGeometry x="340" y="-35" width="210" height="30" as="geometry" />
        </mxCell>
      </root>
    </mxGraphModel>
  </diagram>
</mxfile>
